<svg xmlns="http://www.w3.org/2000/svg" width="48" height="48" viewBox="0 0 48 48" fill="none">
  <rect x="6" y="16" width="36" height="16" rx="2" fill="#FF8C00" stroke="#E67300" stroke-width="2"/>
  <rect x="12" y="20" width="4" height="8" rx="1" fill="#FFFFFF"/>
  <rect x="20" y="20" width="4" height="8" rx="1" fill="#FFFFFF"/>
  <rect x="28" y="20" width="4" height="8" rx="1" fill="#FFFFFF"/>
  <circle cx="37" cy="20" r="1.5" fill="#FFFFFF"/>
  <circle cx="37" cy="24" r="1.5" fill="#FFFFFF"/>
  <circle cx="37" cy="28" r="1.5" fill="#FFFFFF"/>
  <path d="M24 16 L28 10 L24 4 L20 10 L24 16 Z" fill="#FF8C00" stroke="#E67300" stroke-width="1.5"/>
  <path d="M24 48 L28 42 L24 36 L20 42 L24 48 Z" fill="#FF8C00" stroke="#E67300" stroke-width="1.5"/>
  <path d="M4 24 L10 28 L16 24 L10 20 L4 24 Z" fill="#FF8C00" stroke="#E67300" stroke-width="1.5"/>
  <path d="M44 24 L38 28 L32 24 L38 20 L44 24 Z" fill="#FF8C00" stroke="#E67300" stroke-width="1.5"/>
</svg>