<svg xmlns="http://www.w3.org/2000/svg" width="48" height="48" viewBox="0 0 48 48" fill="none">
  <rect x="4" y="12" width="40" height="8" rx="2" fill="#4CAF50" stroke="#2E7D32" stroke-width="2"/>
  <rect x="4" y="20" width="40" height="8" rx="2" fill="#4CAF50" stroke="#2E7D32" stroke-width="2"/>
  <rect x="4" y="28" width="40" height="8" rx="2" fill="#4CAF50" stroke="#2E7D32" stroke-width="2"/>
  <circle cx="9" cy="16" r="1.5" fill="#C2FABC"/>
  <circle cx="15" cy="16" r="1.5" fill="#C2FABC"/>
  <circle cx="21" cy="16" r="1.5" fill="#C2FABC"/>
  <circle cx="27" cy="16" r="1.5" fill="#C2FABC"/>
  <circle cx="33" cy="16" r="1.5" fill="#C2FABC"/>
  <circle cx="39" cy="16" r="1.5" fill="#C2FABC"/>
  <circle cx="9" cy="24" r="1.5" fill="#C2FABC"/>
  <circle cx="15" cy="24" r="1.5" fill="#C2FABC"/>
  <circle cx="21" cy="24" r="1.5" fill="#C2FABC"/>
  <circle cx="27" cy="24" r="1.5" fill="#C2FABC"/>
  <circle cx="33" cy="24" r="1.5" fill="#C2FABC"/>
  <circle cx="39" cy="24" r="1.5" fill="#C2FABC"/>
  <circle cx="9" cy="32" r="1.5" fill="#C2FABC"/>
  <circle cx="15" cy="32" r="1.5" fill="#C2FABC"/>
  <circle cx="21" cy="32" r="1.5" fill="#C2FABC"/>
  <circle cx="27" cy="32" r="1.5" fill="#C2FABC"/>
  <circle cx="33" cy="32" r="1.5" fill="#C2FABC"/>
  <circle cx="39" cy="32" r="1.5" fill="#C2FABC"/>
  <path d="M24 4 L27 10 L21 10 Z" fill="#4CAF50" stroke="#2E7D32" stroke-width="1.5"/>
  <path d="M24 44 L27 38 L21 38 Z" fill="#4CAF50" stroke="#2E7D32" stroke-width="1.5"/>
</svg>